<?xml version="1.0" encoding="UTF-8" standalone="no"?><!DOCTYPE svg PUBLIC "-//W3C//DTD SVG 1.1//EN" "http://www.w3.org/Graphics/SVG/1.1/DTD/svg11.dtd"><svg width="100%" height="100%" viewBox="0 0 256 256" version="1.1" xmlns="http://www.w3.org/2000/svg" xmlns:xlink="http://www.w3.org/1999/xlink" xml:space="preserve" xmlns:serif="http://www.serif.com/" style="fill-rule:evenodd;clip-rule:evenodd;stroke-linejoin:round;stroke-miterlimit:1.41421;"><g id="Chip"><path d="M48,49l160,0l0,146.667l-13.333,0l0,-133.334l-133.334,0l0,133.334l146.667,0l0,13.333l-160,0l0,-13.333l0,-146.667Z"/><rect x="61.333" y="62.333" width="133.333" height="133.333" style="fill:#ff0200;"/><path d="M141.333,169l13.334,0l0,13.333l-13.334,0l0,-13.333Zm26.667,0l13.333,0l0,13.333l-13.333,0l0,-13.333Zm-93.333,0l13.333,0l0,13.333l-13.333,0l0,-13.333Zm40,0l13.333,0l0,13.333l-13.333,0l0,-13.333Zm13.333,0l13.333,0l0,13.333l-13.333,0l0,-13.333Zm26.667,0l13.333,0l0,13.333l-13.333,0l0,-13.333Zm-66.667,-13.333l13.333,0l0,13.333l-13.333,0l0,-13.333Zm13.333,-13.334l13.334,0l0,13.334l-13.334,0l0,-13.334Zm13.334,-26.666l13.333,0l0,13.333c0,0 0,-6.667 0,-6.667l13.333,0l0,13.334l-13.333,0l0,6.666l-13.333,0l0,-13.333c0,0 0,-13.333 0,-13.333Zm-13.334,-13.334l13.334,0l0,13.334l-13.334,0l0,-13.334Zm-13.333,-13.333l13.333,0l0,13.333l-13.333,0l0,-13.333Zm-13.333,-13.333l13.333,0l0,13.333l-13.333,0l0,-13.333Z" style="fill:#fff;"/></g></svg>