<?xml version="1.0" encoding="UTF-8" standalone="no"?><!DOCTYPE svg PUBLIC "-//W3C//DTD SVG 1.1//EN" "http://www.w3.org/Graphics/SVG/1.1/DTD/svg11.dtd"><svg width="100%" height="100%" viewBox="0 0 256 256" version="1.1" xmlns="http://www.w3.org/2000/svg" xmlns:xlink="http://www.w3.org/1999/xlink" xml:space="preserve" xmlns:serif="http://www.serif.com/" style="fill-rule:evenodd;clip-rule:evenodd;stroke-linejoin:round;stroke-miterlimit:1.41421;"><g id="Floor-Wood"><rect x="0" y="0" width="256" height="256" style="fill:#624e38;"/><path d="M191,193l0,63l-62,0l0,-63l62,0Zm-191,0l0,62l63,0l0,-62l-63,0Zm193,0l0,62l63,0l0,-62l-63,0Zm-66,-64l0,126l-62,0l0,-126l62,0Zm2,0l0,62l126,0l0,-62l-126,0Zm-66,-64l0,126l-62,0l0,-126l62,0Zm2,0l0,62l126,0l0,-62l-126,0Zm190,-64l0,126l-62,0l0,-126l62,0Zm-128,0l0,62l-126,0l0,-62l126,0Zm64,-1l-62,0l0,63l62,0l0,-63Z" style="fill:#f8aa55;"/></g></svg>