<?xml version="1.0" encoding="UTF-8" standalone="no"?><!DOCTYPE svg PUBLIC "-//W3C//DTD SVG 1.1//EN" "http://www.w3.org/Graphics/SVG/1.1/DTD/svg11.dtd"><svg width="100%" height="100%" viewBox="0 0 256 256" version="1.1" xmlns="http://www.w3.org/2000/svg" xmlns:xlink="http://www.w3.org/1999/xlink" xml:space="preserve" xmlns:serif="http://www.serif.com/" style="fill-rule:evenodd;clip-rule:evenodd;stroke-linejoin:round;stroke-miterlimit:1.41421;"><g id="Key-Red"><path d="M129.077,152l18,0l0,24l-18,0l0,12l30,0l0,24l-30,0l0,12l-36,0l0,-96l36,0l0,24Zm18,-108l12,0l0,12l12,0l0,48l-12,0l0,12l-12,0l0,12l-72,0l0,-12l-12,0l0,-12l-12,0l0,-48l12,0l0,-12l12,0l0,-12l72,0l0,12Zm-3.259,13.997l-63,0l0,44.006l63,0l0,-44.006Z" style="fill:#ff0200;"/></g></svg>