<?xml version="1.0" encoding="UTF-8" standalone="no"?><!DOCTYPE svg PUBLIC "-//W3C//DTD SVG 1.1//EN" "http://www.w3.org/Graphics/SVG/1.1/DTD/svg11.dtd"><svg width="100%" height="100%" viewBox="0 0 256 256" version="1.1" xmlns="http://www.w3.org/2000/svg" xmlns:xlink="http://www.w3.org/1999/xlink" xml:space="preserve" xmlns:serif="http://www.serif.com/" style="fill-rule:evenodd;clip-rule:evenodd;stroke-linejoin:round;stroke-miterlimit:1.41421;"><g id="Key-Green"><path d="M129.723,153l17.723,0l0,24l-17.723,0l0,12l29.539,0l0,24l-29.539,0l0,12l-35.446,0l0,-96l35.446,0l0,24Zm17.723,-108l11.816,0l0,12l11.815,0l0,48l-11.815,0l0,12l-11.816,0l0,12l-70.892,0l0,-12l-11.816,0l0,-12l-11.815,0l0,-48l11.815,0l0,-12l11.816,0l0,-12l70.892,0l0,12Zm-3.208,13.997l-62.031,0l0,44.006l62.031,0l0,-44.006Z" style="fill:#1f850f;"/></g></svg>