<?xml version="1.0" encoding="UTF-8" standalone="no"?><!DOCTYPE svg PUBLIC "-//W3C//DTD SVG 1.1//EN" "http://www.w3.org/Graphics/SVG/1.1/DTD/svg11.dtd"><svg width="100%" height="100%" viewBox="0 0 256 256" version="1.1" xmlns="http://www.w3.org/2000/svg" xmlns:xlink="http://www.w3.org/1999/xlink" xml:space="preserve" xmlns:serif="http://www.serif.com/" style="fill-rule:evenodd;clip-rule:evenodd;stroke-linejoin:round;stroke-miterlimit:1.41421;"><g id="Lock-Blue"><path d="M108.001,192l99.999,0l0,32l-160,0l0,-32l0,-56l60.001,0l0,56Zm99.999,0l-60.001,0l0,-56l60.001,0l0,56Zm0,-56l-160,0l0,-24l160,0l0,24Zm-40,-88l16,0l0,16l8,0l0,48l-32,0l0,-48l-8,0l0,-16l-48,0l0,16l-8,0l0,48l-32,0l0,-48l8,0l0,-16l16,0l0,-16l80,0l0,16Z" style="fill:#090bb3;"/></g></svg>