<?xml version="1.0" encoding="UTF-8" standalone="no"?><!DOCTYPE svg PUBLIC "-//W3C//DTD SVG 1.1//EN" "http://www.w3.org/Graphics/SVG/1.1/DTD/svg11.dtd"><svg width="100%" height="100%" viewBox="0 0 256 256" version="1.1" xmlns="http://www.w3.org/2000/svg" xmlns:xlink="http://www.w3.org/1999/xlink" xml:space="preserve" xmlns:serif="http://www.serif.com/" style="fill-rule:evenodd;clip-rule:evenodd;stroke-linejoin:round;stroke-miterlimit:1.41421;"><g id="Wall-Brick"><rect x="0" y="0" width="256" height="256" style="fill:#393939;"/><g><path d="M40.744,194l0,60l-40.75,0l0,-60l40.75,0Zm215.356,0l0,60l-40.75,0l0,-60l40.75,0Zm-130.056,0l0,60l-81.3,0l0,-60l81.3,0Zm85.3,0l0,60l-81.3,0l0,-60l81.3,0Zm-127.944,-64l0,60l-81.3,0l0,-60l81.3,0Zm170.6,0l0,60l-81.3,0l0,-60l81.3,0Zm-85.3,0l0,60l-81.3,0l0,-60l81.3,0Zm-128.056,-64l0,60l-40.65,0l0,-60l40.65,0Zm215.356,0l0,60l-40.65,0l0,-60l40.65,0Zm-130.056,0l0,60l-81.3,0l0,-60l81.3,0Zm85.3,0l0,60l-81.3,0l0,-60l81.3,0Zm-127.944,-64l0,60l-81.3,0l0,-60l81.3,0Zm85.3,0l0,60l-81.3,0l0,-60l81.3,0Zm85.3,0l0,60l-81.3,0l0,-60l81.3,0Z" style="fill:#c34935;"/></g></g></svg>