<?xml version="1.0" encoding="UTF-8" standalone="no"?><!DOCTYPE svg PUBLIC "-//W3C//DTD SVG 1.1//EN" "http://www.w3.org/Graphics/SVG/1.1/DTD/svg11.dtd"><svg width="100%" height="100%" viewBox="0 0 256 256" version="1.1" xmlns="http://www.w3.org/2000/svg" xmlns:xlink="http://www.w3.org/1999/xlink" xml:space="preserve" xmlns:serif="http://www.serif.com/" style="fill-rule:evenodd;clip-rule:evenodd;stroke-linecap:round;stroke-linejoin:round;stroke-miterlimit:1.5;"><g id="Player"><path d="M80,190l112,0l0,32l16,0l0,16l16,0l0,16l-160,0l0,-16l16,0l0,-48Zm128,-16l-128,0l0,-16l-48,0l0,-32l16,0l0,-16l16,0l0,-16l-16,0l0,-64l16,0l0,-16l16,0l0,-16l96,0l0,16l16,0l0,16l32,0l0,16l-16,0l0,16l-127.968,0l0,32l15.965,0l0,16l-15.938,0l0,16l127.941,0l0,48Z" style="stroke:#000;stroke-width:1px;"/><path d="M80,174l112,0l0,16l-0.269,0l0,32l-32.059,0l0,-32l-15.672,0l0,48l-64,0l0,-48l0,-16Z" style="fill:#090bb3;"/><path d="M80,30l0,-16l96,0l0,16l-79.989,0l0,16l-16.011,0l0,16l-16,0l0,-32l16,0Z" style="fill:#ff0200;"/><path d="M80,158l0,16l-32,0l0,-16l32,0Zm112,-64l0,16l-111.968,0l0,-16l111.968,0Zm0,-32l0,32l-128,0l0,-32l128,0Z" style="fill:#f7c091;"/><path d="M64.016,126l0,-16l127.984,0l0,64l-96,0l0,-48l-16,0l0,32l-32,0l0,-32l16.016,0Z" style="fill:#494847;"/><rect x="80" y="222" width="64" height="32" style="fill:#fff;"/><path d="M192,222l0,32l-32,0l0,-32l32,0Zm16.037,16l0,16l-16.037,0l0,-16l16.037,0Z" style="fill:#fff;"/><rect x="80" y="222" width="16.037" height="16"/><rect x="128" y="222" width="16.037" height="16"/></g></svg>